<?xml version="1.0" encoding="UTF-8" standalone="no"?>
<!-- Created with Inkscape (http://www.inkscape.org/) -->

<svg
   xmlns:dc="http://purl.org/dc/elements/1.1/"
   xmlns:cc="http://creativecommons.org/ns#"
   xmlns:rdf="http://www.w3.org/1999/02/22-rdf-syntax-ns#"
   xmlns:svg="http://www.w3.org/2000/svg"
   xmlns="http://www.w3.org/2000/svg"
   xmlns:sodipodi="http://sodipodi.sourceforge.net/DTD/sodipodi-0.dtd"
   xmlns:inkscape="http://www.inkscape.org/namespaces/inkscape"
   width="210mm"
   height="297mm"
   viewBox="0 0 210 297"
   version="1.1"
   id="svg8"
   inkscape:version="0.92.4 5da689c313, 2019-01-14"
   sodipodi:docname="logo.svg"
   inkscape:export-filename="/home/adam/drive/random/hackathon/copernicus2019/design/purify_logo.png"
   inkscape:export-xdpi="250"
   inkscape:export-ydpi="250">
  <defs
     id="defs2" />
  <sodipodi:namedview
     id="base"
     pagecolor="#ffffff"
     bordercolor="#666666"
     borderopacity="1.0"
     inkscape:pageopacity="0.0"
     inkscape:pageshadow="2"
     inkscape:zoom="0.7"
     inkscape:cx="361.64071"
     inkscape:cy="575.62478"
     inkscape:document-units="mm"
     inkscape:current-layer="layer1"
     showgrid="false"
     inkscape:window-width="1920"
     inkscape:window-height="1060"
     inkscape:window-x="0"
     inkscape:window-y="20"
     inkscape:window-maximized="0" />
  <metadata
     id="metadata5">
    <rdf:RDF>
      <cc:Work
         rdf:about="">
        <dc:format>image/svg+xml</dc:format>
        <dc:type
           rdf:resource="http://purl.org/dc/dcmitype/StillImage" />
        <dc:title></dc:title>
      </cc:Work>
    </rdf:RDF>
  </metadata>
  <g
     inkscape:label="Layer 1"
     inkscape:groupmode="layer"
     id="layer1">
    <path
       style="fill:#74b205;fill-opacity:1;stroke:none;stroke-width:0.95151025px;stroke-linecap:butt;stroke-linejoin:miter;stroke-opacity:1"
       d="M 31.739292,115.5577 C 7.9515308,222.26278 86.790972,224.64156 86.790972,224.64156 99.449802,187.13099 104.85441,179.11989 84.072342,147.16145 59.582192,129.58107 49.523467,124.39318 31.739292,115.5577 Z"
       id="path826"
       inkscape:connector-curvature="0"
       sodipodi:nodetypes="cccc" />
    <path
       sodipodi:nodetypes="cscccc"
       inkscape:connector-curvature="0"
       id="path828"
       d="m 86.790972,224.64156 c 0,0 38.400208,5.09737 72.722558,-26.84619 36.99896,-34.43467 18.69037,-125.73529 18.69037,-125.73529 0,0 -38.0604,13.932844 -56.41097,30.58425 -23.108118,13.93284 -37.720588,44.51712 -37.720588,44.51712 -6.95552,27.25026 -3.51725,42.80311 2.71863,77.48011 z"
       style="fill:#88cf06;fill-opacity:1;stroke:none;stroke-width:0.95151025px;stroke-linecap:butt;stroke-linejoin:miter;stroke-opacity:1" />
    <g
       transform="matrix(0.05355672,0,0,0.05355672,41.946839,150.75696)"
       id="g4"
       style="fill:#c0392b;fill-opacity:0.94117647;stroke:#c0f500;stroke-opacity:1">
      <path
         inkscape:connector-curvature="0"
         d="M 261.231,0 C 165.207,0 87.077,78.108 87.077,174.154 c 0,92.389 158.306,333.222 165.076,343.41 2.003,3.026 5.421,4.898 9.078,4.898 3.657,0 7.053,-1.872 9.078,-4.898 6.748,-10.188 165.076,-251.021 165.076,-343.41 C 435.385,78.108 357.255,0 261.231,0 Z m 0,250.346 c -42.015,0 -85.70972,-34.178 -85.70972,-76.192 0,-42.014 43.69572,-85.709717 85.70972,-85.709717 42.014,0 85.70972,43.695717 85.70972,85.709717 0,42.014 -43.69572,76.192 -85.70972,76.192 z"
         id="path2"
         sodipodi:nodetypes="sscscsssssss"
         style="fill:#c0392b;fill-opacity:0.94117647;stroke:#c0f500;stroke-opacity:1" />
    </g>
    <g
       transform="matrix(0.05355672,0,0,0.05355672,43.442067,151.77644)"
       id="g6" />
    <g
       transform="matrix(0.05355672,0,0,0.05355672,43.442067,151.77644)"
       id="g8" />
    <g
       transform="matrix(0.05355672,0,0,0.05355672,43.442067,151.77644)"
       id="g10" />
    <g
       transform="matrix(0.05355672,0,0,0.05355672,43.442067,151.77644)"
       id="g12" />
    <g
       transform="matrix(0.05355672,0,0,0.05355672,43.442067,151.77644)"
       id="g14" />
    <g
       transform="matrix(0.05355672,0,0,0.05355672,43.442067,151.77644)"
       id="g16" />
    <g
       transform="matrix(0.05355672,0,0,0.05355672,43.442067,151.77644)"
       id="g18" />
    <g
       transform="matrix(0.05355672,0,0,0.05355672,43.442067,151.77644)"
       id="g20" />
    <g
       transform="matrix(0.05355672,0,0,0.05355672,43.442067,151.77644)"
       id="g22" />
    <g
       transform="matrix(0.05355672,0,0,0.05355672,43.442067,151.77644)"
       id="g24" />
    <g
       transform="matrix(0.05355672,0,0,0.05355672,43.442067,151.77644)"
       id="g26" />
    <g
       transform="matrix(0.05355672,0,0,0.05355672,43.442067,151.77644)"
       id="g28" />
    <g
       transform="matrix(0.05355672,0,0,0.05355672,43.442067,151.77644)"
       id="g30" />
    <g
       transform="matrix(0.05355672,0,0,0.05355672,43.442067,151.77644)"
       id="g32" />
    <g
       transform="matrix(0.05355672,0,0,0.05355672,43.442067,151.77644)"
       id="g34" />
    <g
       style="fill:#c0392b;fill-opacity:0.94117647;stroke:#c0f500;stroke-opacity:1"
       id="g870"
       transform="matrix(0.05355672,0,0,0.05355672,138.72902,105.69615)">
      <path
         style="fill:#c0392b;fill-opacity:0.94117647;stroke:#c0f500;stroke-opacity:1"
         sodipodi:nodetypes="sscscsssssss"
         id="path868"
         d="M 261.231,0 C 165.207,0 87.077,78.108 87.077,174.154 c 0,92.389 158.306,333.222 165.076,343.41 2.003,3.026 5.421,4.898 9.078,4.898 3.657,0 7.053,-1.872 9.078,-4.898 6.748,-10.188 165.076,-251.021 165.076,-343.41 C 435.385,78.108 357.255,0 261.231,0 Z m 0,250.346 c -42.015,0 -85.70972,-34.178 -85.70972,-76.192 0,-42.014 43.69572,-85.709717 85.70972,-85.709717 42.014,0 85.70972,43.695717 85.70972,85.709717 0,42.014 -43.69572,76.192 -85.70972,76.192 z"
         inkscape:connector-curvature="0" />
    </g>
    <path
       style="fill:none;stroke:#2c3e50;stroke-width:2.15775585;stroke-linecap:round;stroke-linejoin:miter;stroke-miterlimit:4;stroke-dasharray:4.31551141, 8.63102282;stroke-dashoffset:0;stroke-opacity:0.94117647"
       d="m 56.376607,178.59527 c 37.380755,13.25319 25.147065,27.86565 47.405603,21.40896 17.85095,-6.96441 -0.004,-40.32185 13.22235,-48.03309 15.43497,-8.99902 35.71247,-17.89297 35.71247,-17.89297"
       id="path872"
       inkscape:connector-curvature="0"
       sodipodi:nodetypes="ccsc" />
  </g>
</svg>
